<?xml version="1.0" encoding="UTF-8"?>
<!DOCTYPE svg PUBLIC "-//W3C//DTD SVG 1.1//EN" "http://www.w3.org/Graphics/SVG/1.1/DTD/svg11.dtd">
<!-- Creator: CorelDRAW X6 -->
<svg xmlns="http://www.w3.org/2000/svg" xml:space="preserve" width="59.6111in" height="27.7778in" version="1.1" style="shape-rendering:geometricPrecision; text-rendering:geometricPrecision; image-rendering:optimizeQuality; fill-rule:evenodd; clip-rule:evenodd"
viewBox="0 0 59611 27778"
 xmlns:xlink="http://www.w3.org/1999/xlink">
 <defs>
  <style type="text/css">
   <![CDATA[
    .fil2 {fill:#282828;fill-rule:nonzero}
    .fil3 {fill:#373435;fill-rule:nonzero}
    .fil0 {fill:#73CDDD;fill-rule:nonzero}
    .fil1 {fill:url(#id0)}
   ]]>
  </style>
  <radialGradient id="id0" gradientUnits="userSpaceOnUse" cx="13890.1" cy="13889.7" r="10000.9" fx="13890.1" fy="13889.7">
   <stop offset="0" style="stop-color:#FEFEFE"/>
   <stop offset="1" style="stop-color:#CECDCC"/>
  </radialGradient>
 </defs>
 <g id="Layer_x0020_1">
  <metadata id="CorelCorpID_0Corel-Layer"/>
  <polygon class="fil0" points="31845,27778 59623,27778 59623,0 31845,0 "/>
  <polygon class="fil1" points="0,27778 27780,27778 27780,2 0,2 "/>
  <path class="fil2" d="M4790 18279l71 0c34,0 63,-12 87,-35 24,-23 35,-53 35,-87 0,-32 -12,-62 -35,-87 -24,-24 -53,-35 -87,-35l-71 0 0 244zm365 433l-175 0 -168 -281 -22 0 0 281 -150 0 0 -829 150 0 0 2 71 0c75,0 143,28 193,79 50,53 81,118 81,193 0,75 -29,144 -81,193 -25,25 -51,43 -81,56l183 306z"/>
  <path class="fil2" d="M5484 18032l0 194 0 -194zm0 194l224 0 0 150 -224 0 0 184 300 0 0 152 -451 0 0 -830 451 0 0 150 -300 0 0 194z"/>
  <path class="fil2" d="M6262 18085l133 -72 -133 72zm0 0c-10,-18 -25,-29 -43,-40 -24,-10 -46,-15 -68,-12 -19,3 -35,12 -49,25 -13,13 -21,29 -22,49 -1,13 0,26 6,37 4,10 13,22 27,34 10,7 22,13 32,18 16,6 29,10 46,15 21,6 41,10 62,19 24,9 47,22 69,41 34,27 59,58 75,94 18,40 24,77 21,116 -6,57 -28,108 -68,150 -37,40 -87,66 -147,74 -53,7 -110,0 -162,-25 -47,-22 -91,-59 -118,-110 -9,-16 -13,-28 -19,-44 -4,-13 -7,-29 -10,-49l149 -21c1,10 4,18 6,22 1,4 3,12 7,19 13,22 29,38 50,47 25,12 53,16 78,12 24,-4 41,-13 57,-30 15,-15 24,-34 27,-57 0,-16 -1,-29 -7,-43 -6,-13 -15,-28 -32,-38 -9,-10 -21,-15 -31,-19 -16,-6 -29,-10 -46,-15 -22,-4 -43,-12 -62,-19 -25,-9 -47,-24 -71,-41 -32,-27 -53,-54 -69,-88 -16,-37 -24,-74 -21,-110 4,-51 28,-102 65,-141 35,-35 81,-62 138,-69 52,-7 105,2 152,24 46,22 82,56 110,104l-133 72z"/>
  <path class="fil2" d="M6760 18032l0 194 0 -194zm0 194l224 0 0 150 -224 0 0 184 300 0 0 152 -451 0 0 -830 451 0 0 150 -300 0 0 194z"/>
  <path class="fil2" d="M7671 18222l-75 161 75 -161zm-75 161l153 0 -78 -161 -75 161zm224 141l-292 0 -88 188 -165 0 325 -689 68 -143 69 141 340 690 -165 0 -93 -188z"/>
  <path class="fil2" d="M8406 18279l71 0c34,0 63,-12 87,-35 24,-23 35,-53 35,-87 0,-32 -12,-62 -35,-87 -24,-24 -53,-35 -87,-35l-71 0 0 244zm365 433l-175 0 -168 -281 -22 0 0 281 -150 0 0 -829 150 0 0 2 71 0c75,0 143,28 193,79 50,53 81,118 81,193 0,75 -29,144 -81,193 -25,25 -52,43 -81,56l183 306z"/>
  <path class="fil2" d="M9630 18455l124 84 -124 -84zm124 84c-41,60 -94,109 -160,143 -63,34 -133,50 -208,50 -122,0 -228,-47 -309,-128 -81,-81 -128,-187 -128,-309 0,-122 47,-228 128,-309 81,-81 187,-128 309,-128 72,0 140,18 199,47 62,32 113,77 156,134l-122 88c-26,-37 -60,-65 -102,-87 -41,-22 -85,-32 -131,-32 -78,0 -149,32 -202,85 -53,53 -85,124 -85,202 0,81 32,150 85,203 52,51 121,84 202,84 51,0 97,-12 138,-34 43,-22 78,-53 106,-93l124 84z"/>
  <path class="fil2" d="M9956 17883l152 0 -152 0zm152 0l0 343 256 0 0 -343 150 0 0 829 -150 0 0 -336 -256 0 0 336 -152 0 0 -829 152 0z"/>
  <path class="fil2" d="M11548 18085l133 -72 -133 72zm0 0c-10,-18 -25,-29 -43,-40 -24,-10 -46,-15 -68,-12 -19,3 -35,12 -49,25 -13,13 -21,29 -22,49 -1,13 0,26 6,37 4,10 13,22 27,34 10,7 22,13 32,18 16,6 29,10 46,15 21,6 41,10 62,19 24,9 47,22 69,41 34,27 59,58 75,94 18,40 24,77 21,116 -6,57 -28,108 -68,150 -37,40 -87,66 -147,74 -53,7 -110,0 -162,-25 -47,-22 -91,-59 -118,-110 -9,-16 -13,-28 -19,-44 -4,-13 -7,-29 -10,-49l149 -21c1,10 4,18 6,22 1,4 3,12 7,19 13,22 29,38 50,47 25,12 53,16 78,12 24,-4 41,-13 57,-30 15,-15 24,-34 27,-57 0,-16 -2,-29 -7,-43 -6,-13 -15,-28 -32,-38 -9,-10 -21,-15 -31,-19 -16,-6 -29,-10 -46,-15 -22,-4 -43,-12 -62,-19 -25,-9 -47,-24 -71,-41 -32,-27 -53,-54 -69,-88 -16,-37 -24,-74 -21,-110 4,-51 28,-102 65,-141 35,-35 81,-62 138,-69 52,-7 105,2 152,24 46,22 82,56 110,104l-133 72z"/>
  <path class="fil2" d="M12324 18388c124,2 193,31 246,66 31,-46 50,-100 50,-160 0,-78 -32,-150 -84,-202 -51,-53 -122,-85 -203,-85 -78,0 -149,32 -202,85 -53,53 -85,124 -85,202 0,81 32,150 85,203 52,51 124,84 202,84 40,0 77,-7 109,-22 -29,-12 -68,-19 -119,-19l2 -152zm318 -403c81,81 128,187 128,309 0,94 -27,180 -78,250 22,10 46,16 77,16l0 150c-90,0 -141,-25 -187,-56 -71,48 -155,77 -249,77 -122,0 -228,-47 -309,-128 -81,-81 -128,-187 -128,-309 0,-122 47,-228 128,-309 81,-81 187,-128 309,-128 122,0 228,47 309,128z"/>
  <path class="fil2" d="M13115 17883l-150 0 150 0zm0 0l0 481c0,47 -1,94 15,128 12,25 29,46 53,60 22,15 47,22 74,22 24,0 47,-6 69,-19 22,-12 40,-30 53,-52 22,-35 19,-84 19,-133l0 -489 152 0 0 489c0,69 0,138 -41,209 -28,46 -63,81 -107,106 -43,25 -91,38 -144,38 -57,0 -109,-15 -156,-46 -49,-31 -82,-71 -107,-122 -32,-66 -29,-131 -29,-194 1,-12 1,-24 1,-34l0 -446 150 0z"/>
  <path class="fil2" d="M13739 17883l150 0 -150 0zm150 0l0 829 -150 0 0 -829 150 0z"/>
  <path class="fil2" d="M14238 18279l71 0c34,0 63,-12 87,-35 24,-23 35,-53 35,-87 0,-32 -12,-62 -35,-87 -24,-24 -53,-35 -87,-35l-71 0 0 244zm365 433l-175 0 -168 -281 -22 0 0 281 -150 0 0 -829 150 0 0 2 71 0c75,0 143,28 193,79 50,53 81,118 81,193 0,75 -29,144 -81,193 -25,25 -52,43 -81,56l183 306z"/>
  <path class="fil2" d="M14931 18279l71 0c34,0 63,-12 87,-35 24,-23 35,-53 35,-87 0,-32 -12,-62 -35,-87 -24,-24 -53,-35 -87,-35l-71 0 0 244zm365 433l-175 0 -168 -281 -22 0 0 281 -150 0 0 -829 150 0 0 2 71 0c75,0 143,28 193,79 50,53 81,118 81,193 0,75 -29,144 -81,193 -25,25 -52,43 -81,56l182 306z"/>
  <path class="fil2" d="M15624 18032l0 194 0 -194zm0 194l224 0 0 150 -224 0 0 184 300 0 0 152 -451 0 0 -830 451 0 0 150 -300 0 0 194z"/>
  <path class="fil2" d="M16277 17883l-150 0 150 0zm0 0l0 676 277 0 0 152 -277 0 0 2 -150 0 0 -829 150 0z"/>
  <path class="fil2" d="M17351 18032l0 194 0 -194zm0 194l224 0 0 150 -224 0 0 184 300 0 0 152 -451 0 0 -830 451 0 0 150 -300 0 0 194z"/>
  <path class="fil2" d="M18295 17885l150 0 -150 0zm150 0l0 824 -131 -137 -311 -319 0 455 -150 0 0 -823 131 137 311 319 0 -456 150 0z"/>
  <path class="fil2" d="M19069 18290l0 150 0 -150zm0 0l456 0 0 2c0,122 -40,228 -121,309 -82,83 -194,131 -318,131 -122,0 -230,-46 -309,-128 -80,-81 -128,-187 -128,-309 0,-122 48,-228 128,-309 79,-83 190,-128 309,-128 72,0 140,16 199,47 63,32 116,77 156,134l-122 88c-26,-37 -60,-65 -102,-87 -41,-22 -85,-32 -131,-32 -78,0 -150,32 -202,85 -52,52 -84,124 -84,202 0,81 32,150 84,203 51,51 124,84 202,84 82,0 157,-34 210,-87 16,-16 29,-34 41,-51l-269 -3 0 -150z"/>
  <path class="fil2" d="M19715 17883l150 0 -150 0zm150 0l0 829 -150 0 0 -829 150 0z"/>
  <path class="fil2" d="M20506 17885l150 0 -150 0zm150 0l0 824 -131 -137 -311 -319 0 455 -150 0 0 -823 131 137 311 319 0 -456 150 0z"/>
  <path class="fil2" d="M21008 18032l0 194 0 -194zm0 194l224 0 0 150 -224 0 0 184 300 0 0 152 -450 0 0 -830 450 0 0 150 -300 0 0 194z"/>
  <path class="fil2" d="M21660 18032l0 194 0 -194zm0 194l224 0 0 150 -224 0 0 184 300 0 0 152 -450 0 0 -830 450 0 0 150 -300 0 0 194z"/>
  <path class="fil2" d="M22312 18279l71 0c34,0 63,-12 87,-35 24,-23 35,-53 35,-87 0,-32 -12,-62 -35,-87 -23,-24 -53,-35 -87,-35l-71 0 0 244zm365 433l-175 0 -168 -281 -22 0 0 281 -150 0 0 -829 150 0 0 2 71 0c75,0 143,28 193,79 50,53 81,118 81,193 0,75 -29,144 -81,193 -25,25 -52,43 -81,56l183 306z"/>
  <path class="fil2" d="M23223 18085l133 -72 -133 72zm0 0c-10,-18 -25,-29 -43,-40 -24,-10 -46,-15 -68,-12 -19,3 -35,12 -49,25 -13,13 -21,29 -22,49 -2,13 0,26 6,37 4,10 13,22 27,34 10,7 22,13 32,18 16,6 29,10 46,15 21,6 41,10 62,19 23,9 47,22 69,41 34,27 59,58 75,94 18,40 23,77 21,116 -6,57 -28,108 -68,150 -37,40 -87,66 -147,74 -53,7 -110,0 -162,-25 -47,-22 -91,-59 -118,-110 -9,-16 -13,-28 -19,-44 -4,-13 -7,-29 -10,-49l149 -21c2,10 4,18 6,22 2,4 3,12 7,19 13,22 29,38 50,47 25,12 53,16 78,12 23,-4 41,-13 57,-30 15,-15 24,-34 27,-57 0,-16 -2,-29 -7,-43 -6,-13 -15,-28 -32,-38 -9,-10 -21,-15 -31,-19 -16,-6 -29,-10 -46,-15 -22,-4 -43,-12 -62,-19 -25,-9 -47,-24 -71,-41 -32,-27 -53,-54 -69,-88 -16,-37 -23,-74 -21,-110 4,-51 28,-102 65,-141 35,-35 81,-62 138,-69 51,-7 104,2 152,24 46,22 83,56 110,104l-133 72z"/>
  <path class="fil3" d="M13536 15724c-79,123 -182,194 -344,126 -86,-36 -186,-47 -281,-52 -430,-25 -676,-259 -779,-677 -77,-313 -31,-601 46,-900 74,-289 117,-585 186,-875 117,-487 289,-941 790,-1171 43,-20 91,-41 122,-75 53,-57 139,-133 129,-187 -10,-59 -114,-100 -176,-149 -112,-88 -240,-161 -332,-266 -147,-167 -90,-327 67,-464 40,-35 70,-82 104,-124l0 -1 1 0 0 -10c0,1 -1,3 -1,4 -3,-140 -17,-282 -2,-420 11,-107 50,-216 100,-312 17,-32 106,-43 157,-35 34,6 60,63 90,97 -10,8 -26,24 -30,31 -264,59 -346,246 -247,557l0 2c16,50 45,94 82,127 28,25 61,43 97,54 25,8 51,12 78,12l66 0c5,79 44,248 187,263 204,21 322,17 324,-279l227 0c108,0 201,-72 233,-175l0 -1c105,-329 -15,-505 -358,-521 25,-168 150,-228 322,-154 189,81 324,324 277,553 -35,173 -17,295 148,393 168,100 142,451 -63,554 -218,109 -464,178 -653,323 -183,141 -349,336 -451,543 -299,607 -380,1235 -25,1856 270,474 185,920 -92,1353zm-766 -5810c-36,-145 -62,-250 -89,-361 274,21 461,145 505,335 -137,-13 -268,-246 -416,25zm705 996c-1,6 -3,13 -4,19 -13,0 -25,0 -38,1 15,-4 29,-10 42,-20zm-15 -581c24,51 36,125 41,192 -26,-30 -58,-47 -92,-47 -19,0 -38,6 -55,16 -57,33 -97,116 -97,214 0,84 30,157 74,197 18,16 39,27 61,31 -24,0 -46,-2 -66,-7 -51,-13 -88,-45 -112,-94 -23,-47 -34,-111 -35,-192 0,-78 13,-143 39,-193 16,-32 37,-57 62,-77 34,-26 76,-41 125,-43 19,-1 38,1 55,4zm727 45c130,5 206,109 205,283 -1,187 -65,274 -209,265 -14,-1 -28,-1 -42,-1 33,-32 57,-83 66,-142 2,-16 4,-33 4,-51 0,-83 -29,-155 -73,-196 -23,-22 -51,-34 -80,-34 -33,0 -64,16 -90,44 41,-111 114,-173 218,-169zm592 -659c147,-94 307,-168 461,-250 16,15 31,30 47,44 -7,205 -43,405 -188,566 -38,42 -126,41 -190,59l0 -247c-2,0 -23,-8 -45,-8 -60,1 -119,4 -179,7 30,-59 46,-142 94,-173zm-3364 1900l-193 0 0 -769c-62,64 -129,113 -203,144l0 -183c51,-25 98,-58 140,-102 42,-43 75,-96 101,-157l156 0 0 1067zm4436 -4c17,-78 48,-140 93,-184 45,-44 108,-66 188,-66 85,0 151,24 196,72 46,48 76,111 90,189 15,78 22,172 22,281 0,114 -9,210 -27,290 -18,79 -49,141 -94,185 -45,44 -106,67 -183,67 -88,0 -155,-25 -201,-75 -45,-50 -75,-113 -90,-189 -15,-76 -22,-169 -22,-278 0,-117 9,-214 26,-293zm1345 1345c-184,-86 -386,-131 -574,-208 -59,41 -123,76 -190,106l-2 1 0 0c-33,14 -68,33 -104,55 -35,21 -72,44 -112,67 -1,1 -3,2 -4,2l-68 39 -36 -19c-6,9 -13,19 -20,28 -65,92 -136,182 -219,264 -129,129 -273,248 -438,344 -165,96 -352,168 -563,203 -72,12 -155,28 -246,41 -52,7 -107,14 -164,18 -147,130 -281,284 -388,454 -12,-17 -24,-34 -34,-52 -2,-3 -3,-6 -6,-11 -28,-58 -101,-244 -106,-246 0,-85 2,-212 4,-343 357,111 672,37 916,-3 387,-65 677,-262 923,-507 112,-111 205,-242 292,-377l3 2c26,13 52,27 78,40 75,-43 151,-96 235,-132 96,-41 180,-95 254,-160 62,-55 117,-117 165,-189 206,-303 231,-646 212,-996 -3,-66 -49,-98 -114,-99 -86,-1 -172,0 -257,0 0,0 -1378,-50 -1375,39 4,155 0,401 24,553 36,222 113,422 249,584 -5,4 -10,9 -15,13 -207,173 -518,228 -806,179 -30,-44 -59,-89 -88,-134 -111,-98 -220,-192 -326,-291 -97,-90 -70,-154 53,-183 94,-22 383,-118 426,-147 16,-10 32,-22 47,-33l47 -33 93 -67c56,-42 103,-95 136,-156 16,-31 30,-63 40,-98 6,-17 9,-34 14,-52 2,-9 3,-18 5,-27 2,-9 4,-18 5,-27 10,-72 12,-146 7,-221 -2,-37 -281,-601 -79,-840 256,-302 301,-687 461,-1025 15,-32 2,-77 2,-113 -131,44 -252,97 -378,123 -256,53 -467,178 -653,357 -163,158 -385,132 -527,-57 -101,-134 -258,-181 -351,-55 -183,246 -318,112 -472,-8 -14,-11 -30,-20 -46,-28 -191,-107 -381,-214 -573,-318 -21,-11 -71,-8 -79,5 -16,27 -24,69 -15,99 30,103 75,202 104,306 67,238 137,473 332,646 24,21 48,64 44,93 -29,240 10,497 -187,694 -49,49 -85,118 -107,185 -97,296 -104,358 195,509 115,58 248,81 370,125 90,33 140,82 36,163 -386,302 -1110,193 -1397,-210 -37,-53 -61,-96 -70,-135 62,-55 117,-117 165,-189 206,-303 231,-646 212,-996 -3,-66 -49,-98 -114,-99 -86,-1 -172,0 -257,0 0,0 -1375,-50 -1373,40 4,155 -3,401 22,553 55,339 205,625 515,803 87,50 176,95 264,140 57,179 120,359 213,519 176,300 378,586 765,654 43,8 105,86 104,131 -3,154 -4,318 -55,461 -95,268 -207,535 -344,784 -293,532 -287,1037 75,1532 38,51 70,107 105,161 -8,18 -16,35 -24,53 -153,-13 -306,-27 -459,-38 -196,-14 -394,-45 -588,-32 -157,10 -294,113 -299,285 -5,168 155,207 279,225 223,34 451,50 677,53 305,5 612,10 914,-21 309,-31 365,-171 219,-443 -36,-67 -66,-142 -78,-216 -19,-114 31,-176 158,-183 387,-21 935,301 1081,658 29,72 25,177 -5,250 -62,151 -48,215 109,269 68,23 140,34 210,49 350,78 698,163 1050,229 167,31 343,48 511,30 168,-18 230,-179 117,-305 -95,-106 -225,-201 -358,-247 -242,-84 -497,-133 -749,-188 -145,-32 -202,-101 -170,-251 32,-151 52,-305 76,-457 2,-13 4,-26 6,-39 5,-29 7,-60 8,-92 523,-67 1019,-468 1291,-930 98,-165 177,-341 276,-536 92,319 224,392 543,323 354,-77 570,-327 708,-645 182,-417 27,-844 -383,-1034z"/>
  <path class="fil3" d="M16060 12235c16,28 40,42 72,42 29,0 51,-11 68,-32 16,-21 28,-58 35,-111 8,-53 11,-129 11,-229 0,-86 -2,-153 -6,-203 -4,-50 -14,-91 -30,-123 -16,-33 -42,-49 -77,-49 -35,0 -61,14 -77,43 -16,29 -26,68 -30,117 -4,49 -6,120 -6,212 0,89 3,160 8,212 5,52 16,93 33,121z"/>
  <path class="fil3" d="M14858 12520c18,1 36,1 53,1 99,0 196,-14 283,-42 48,-15 93,-34 134,-57 -36,-58 -67,-118 -93,-181 -5,-12 -10,-25 -15,-38 -144,87 -269,190 -363,316z"/>
  <path class="fil3" d="M11276 10321c254,0 508,0 762,0 157,0 203,-61 150,-212 -93,-269 -290,-434 -553,-525 -223,-77 -262,-130 -265,-365 -1,-69 31,-174 -88,-172 -111,2 -78,103 -79,169 -3,235 -45,291 -263,367 -270,93 -470,263 -560,542 -43,133 5,196 143,196 251,1 502,0 752,0z"/>
  <path class="fil3" d="M15226 10990c-43,132 5,196 143,196 251,1 502,0 752,0 254,0 508,0 762,0 157,0 203,-61 151,-212 -93,-269 -290,-434 -553,-525 -223,-77 -262,-130 -265,-365 -1,-69 31,-174 -88,-172 -111,2 -78,103 -79,169 -3,235 -45,291 -263,367 -270,93 -470,263 -560,542z"/>
  <path class="fil3" d="M13653 11569c16,6 51,16 99,16 64,0 152,-18 247,-85 1,-1 2,-1 3,-2 -7,16 -14,33 -22,50 -25,51 -56,101 -93,140 -19,19 -39,35 -60,47 -21,12 -43,20 -67,24 -10,1 -19,2 -28,2 -22,0 -40,-4 -57,-10 -30,-11 -55,-31 -77,-57 -33,-38 -56,-89 -70,-129 -1,-2 -1,-3 -2,-5 39,6 82,9 128,10zm-219 -7c14,46 39,114 84,174 23,30 51,58 87,79 35,21 78,34 126,34 13,0 27,-1 40,-3 36,-5 69,-18 99,-35 52,-30 94,-74 127,-121 51,-72 85,-153 107,-216 16,-46 25,-83 29,-100 44,-53 89,-119 132,-200 4,2 8,4 12,7 16,8 33,16 59,22 6,-25 2,-48 -7,-68 -2,-4 -4,-8 -6,-11 -9,-15 -21,-28 -35,-39 -17,-13 -38,-22 -59,-25 -22,-3 -45,-1 -67,13 13,19 24,33 34,45 -5,9 -10,18 -14,27 -46,83 -92,147 -136,196 -34,38 -67,66 -98,88 -80,56 -148,69 -196,69 -24,0 -43,-3 -56,-6 -6,-2 -11,-3 -14,-4 -1,0 -2,-1 -3,-1l0 0 -8 -4 -9 0c-97,0 -171,-14 -228,-35 -2,-1 -5,-2 -8,-3 -43,-17 -76,-39 -102,-62 -38,-35 -61,-76 -74,-116 -13,-40 -17,-80 -17,-110 0,-10 0,-19 1,-27 2,-2 3,-3 5,-5 13,-12 25,-26 41,-47 -21,-15 -45,-18 -66,-16 0,0 -1,0 -1,0 -21,2 -42,10 -59,22 -18,12 -33,28 -43,48 -10,19 -15,42 -11,67 17,-3 30,-8 42,-12 2,-1 3,-1 5,-2 2,28 6,59 15,93 9,34 24,70 47,104 34,52 85,100 159,135 18,8 37,16 58,23 2,7 4,16 7,25z"/>
  <polygon class="fil3" points="48103,12543 48105,12545 48106,12545 "/>
  <path class="fil3" d="M48821 11939c-15,-44 -18,-106 -49,-126 -24,-16 -82,20 -129,35 7,-103 97,-211 193,-225 16,-2 44,13 51,28 44,90 13,220 -66,288zm-2299 1479c-30,-30 -54,-66 -70,-107 -15,-41 -24,-85 -24,-132 0,-47 8,-90 23,-130 15,-40 38,-76 69,-108 30,-31 69,-57 115,-76 47,-19 100,-28 161,-28 63,0 117,10 164,29 47,20 85,45 115,77 30,32 52,68 67,109 15,41 22,83 22,127 0,52 -9,99 -27,141 -18,42 -43,78 -74,107 -33,30 -72,53 -115,69 -44,16 -94,24 -151,24 -61,0 -113,-9 -160,-28 -46,-19 -84,-43 -115,-74zm1758 -826c-62,23 -129,4 -176,-48 -62,-48 -76,-125 -37,-201 41,-79 131,-113 219,-82 62,22 111,93 112,161 0,76 -47,144 -118,171zm6325 -1552c-143,-720 -719,-1273 -1444,-1388 -56,-9 -113,-19 -169,-28 -74,0 -148,0 -222,0 -104,19 -210,31 -311,59 -676,188 -1108,621 -1286,1302 -61,234 -33,989 9,1227 9,51 30,87 72,119 536,411 719,601 832,1265 97,565 112,935 -154,1443 -7,14 -15,27 -29,51 27,-101 68,-190 72,-280 9,-223 17,-449 -2,-671 -44,-500 -250,-931 -613,-1279 -474,-455 -1041,-642 -1695,-575 -72,7 -151,-13 -223,-34 -170,-49 -325,-132 -470,-233 -33,-23 -35,-42 -23,-79 38,-118 79,-237 98,-358 9,-59 -28,-125 -45,-188 -55,19 -115,31 -165,59 -93,52 -163,128 -207,227 -9,21 -35,41 -58,50 -348,127 -617,345 -800,670 -108,192 -191,389 -213,609 -2,23 4,62 20,70 166,89 319,203 515,229 148,19 290,12 432,-30 30,-9 62,-14 98,-22 8,89 2,161 -70,221 -148,124 -382,155 -553,63 -22,-12 -43,-28 -59,-47 -124,-160 -281,-227 -479,-201 44,-240 -15,-470 -100,-697 -18,-48 -59,-61 -108,-47 -64,20 -128,40 -192,60l-791 250c54,260 140,497 292,699 34,45 71,88 111,130 16,16 32,32 49,47 -24,-13 -48,-26 -70,-40 -32,-20 -63,-42 -91,-65 -228,-181 -345,-439 -413,-729 -79,18 -102,62 -79,128 39,114 71,233 125,340 79,157 184,288 324,377 73,46 156,81 250,101 76,17 152,29 227,42l3 0c22,4 45,8 67,12 46,-50 90,-107 144,-154 15,-13 28,-25 41,-39 215,-65 430,60 534,237 69,117 151,226 230,337 18,26 46,46 72,65 88,66 88,58 187,7 163,-86 330,-164 499,-240 76,-34 146,-26 217,36 68,60 152,103 233,148 33,18 42,33 30,70 -161,493 44,1004 471,1254 13,8 25,19 51,38 -30,5 -46,10 -61,10 -93,1 -185,0 -278,2 -92,3 -158,67 -159,150 -1,87 66,151 163,151 521,1 1041,0 1562,1 68,0 111,-32 158,-80 43,-43 111,-81 171,-85 859,-55 1486,-475 1886,-1224 327,-613 259,-1413 -140,-1977 34,81 67,163 106,255 -103,-155 -200,-297 -291,-442 -59,-93 -122,-187 -158,-289 -174,-492 66,-1037 552,-1271 459,-220 1034,-56 1309,373 16,25 35,48 52,73 0,-19 0,-37 0,-56 -13,-70 -26,-139 -40,-209z"/>
  <path class="fil3" d="M48187 12352c-60,0 -109,49 -109,109 0,60 49,109 109,109 60,0 109,-49 109,-109 0,-60 -49,-109 -109,-109z"/>
  <path class="fil3" d="M46662 13063c-5,35 -7,74 -7,116 0,44 2,82 6,113 4,31 12,61 23,90 10,26 24,47 43,63 19,16 42,24 70,24 25,0 48,-7 66,-22 19,-14 33,-34 44,-59 11,-27 20,-56 25,-89 5,-33 7,-73 7,-120 0,-42 -2,-80 -7,-114 -4,-34 -12,-64 -23,-90 -11,-27 -26,-48 -44,-63 -19,-15 -41,-22 -67,-22 -27,0 -50,7 -68,22 -18,15 -33,35 -45,62 -10,24 -18,54 -22,89z"/>
  <path class="fil3" d="M46660 12657c189,-60 379,-120 568,-180 117,-37 137,-94 62,-194 -133,-179 -319,-255 -536,-261 -185,-5 -226,-35 -284,-210 -17,-51 -18,-137 -106,-107 -83,28 -34,95 -19,145 53,176 35,228 -110,336 -180,133 -289,307 -290,537 -1,109 50,145 153,113 187,-59 374,-118 561,-177z"/>
  <polygon class="fil3" points="43363,12545 43363,12545 43365,12543 "/>
  <path class="fil3" d="M43281 12570c61,0 109,-49 109,-109 0,-60 -49,-109 -109,-109 -60,0 -109,49 -109,109 0,60 49,109 109,109z"/>
  <path class="fil3" d="M44386 13500l0 -45c12,-1 31,-3 57,-6 26,-3 44,-6 54,-10 12,-4 21,-11 28,-20 7,-10 10,-23 10,-39l0 -379 -151 0 0 -57 33 0c35,0 65,-4 90,-11 25,-8 46,-17 63,-28 17,-11 31,-23 42,-35 11,-12 20,-23 26,-32l105 0c-1,26 -2,56 -4,91 -1,35 -2,66 -2,93l0 350c0,14 3,27 9,37 7,11 15,19 27,24 11,5 28,9 52,13 24,4 42,6 54,7l0 45 -493 0zm-1690 -1687c-30,20 -34,82 -49,126 -79,-68 -110,-199 -66,-288 7,-15 35,-30 51,-28 96,14 187,122 193,225 -47,-14 -105,-50 -129,-35zm486 448c87,-31 178,3 219,82 39,76 26,153 -37,201 -46,53 -113,71 -175,48 -72,-26 -119,-95 -118,-171 1,-68 50,-139 112,-161zm2138 636c-69,290 -185,548 -413,729 -28,23 -59,44 -91,65 -22,14 -46,27 -70,40 17,-15 33,-31 48,-47 41,-41 78,-85 112,-130 151,-202 238,-438 291,-699l-791 -250c-64,-20 -128,-41 -192,-60 -48,-15 -90,-2 -108,47 -85,227 -144,457 -100,697 -198,-26 -355,42 -479,201 -15,19 -37,35 -58,47 -171,93 -405,61 -553,-63 -72,-61 -78,-132 -70,-221 36,8 68,13 98,22 142,42 285,50 432,30 196,-26 350,-140 515,-229 15,-8 22,-47 20,-70 -22,-220 -106,-418 -213,-609 -183,-326 -452,-543 -800,-670 -23,-8 -48,-28 -58,-50 -44,-99 -114,-175 -207,-227 -50,-28 -110,-40 -165,-59 -17,63 -54,129 -45,188 19,122 61,240 98,358 12,37 11,56 -23,79 -145,101 -300,184 -470,233 -72,21 -150,42 -223,34 -654,-67 -1222,120 -1695,575 -362,348 -569,779 -613,1279 -20,222 -12,448 -2,671 4,90 45,179 72,280 -13,-23 -22,-37 -29,-51 -266,-508 -277,-908 -180,-1473 114,-663 343,-823 878,-1234 42,-32 63,-69 72,-119 41,-238 50,-993 -12,-1227 -178,-681 -610,-1113 -1286,-1302 -101,-28 -207,-40 -311,-59 -74,0 -148,0 -222,0 -56,9 -113,19 -169,28 -725,115 -1301,669 -1444,1388 -14,69 -27,139 -40,209 0,18 0,37 0,56 17,-24 36,-48 52,-73 275,-429 851,-593 1309,-373 486,233 727,778 553,1271 -36,102 -100,196 -158,289 -91,146 -189,287 -291,442 38,-93 72,-174 106,-255 -399,564 -467,1364 -140,1977 400,748 1027,1168 1886,1224 59,4 128,41 171,85 47,48 90,80 158,80 520,-1 1042,0 1562,-1 97,0 164,-65 163,-151 -1,-83 -67,-147 -159,-150 -93,-2 -185,-1 -278,-2 -16,0 -32,-5 -61,-10 26,-19 37,-30 51,-38 426,-250 632,-761 471,-1254 -12,-37 -3,-51 30,-70 80,-45 164,-88 232,-148 70,-62 141,-71 217,-36 168,76 335,154 498,240 98,52 98,60 187,-7 26,-19 53,-39 72,-65 78,-111 161,-220 230,-337 104,-177 319,-302 534,-237 13,13 27,26 41,39 54,47 98,104 144,154 22,-4 45,-8 67,-12l3 0c75,-13 151,-25 227,-42 94,-20 176,-55 250,-101 140,-88 244,-219 324,-377 54,-107 86,-226 126,-340 23,-66 0,-110 -79,-128z"/>
  <path class="fil3" d="M45232 12185c-146,-108 -163,-160 -110,-336 15,-50 64,-117 -19,-145 -88,-30 -89,56 -106,107 -58,175 -99,205 -284,210 -217,6 -403,83 -536,261 -74,100 -55,157 62,194 189,60 379,120 569,180 187,59 374,119 561,177 103,32 154,-4 153,-113 -2,-230 -111,-403 -290,-537z"/>
  <polygon class="fil3" points="37907,16071 53562,16071 53562,15765 37907,15765 "/>
  <path class="fil2" d="M33219 17342c117,0 183,-62 183,-154l0 -3c0,-103 -71,-155 -188,-155l-238 0 0 313 242 0zm-482 -529l497 0c138,0 246,39 317,110 61,61 93,146 93,249l0 3c0,176 -95,286 -233,337l266 389 -280 0 -233 -348 -188 0 0 348 -239 0 0 -1088z"/>
  <path class="fil2" d="M34524 17419c-14,-106 -76,-177 -176,-177 -98,0 -162,70 -180,177l356 0zm-588 70l0 -3c0,-238 169,-434 412,-434 278,0 406,216 406,452 0,19 -2,40 -3,62l-580 0c23,107 98,163 204,163 79,0 137,-25 202,-85l135 120c-78,97 -190,156 -341,156 -250,0 -435,-176 -435,-431z"/>
  <path class="fil2" d="M35020 17791l101 -156c90,65 185,100 263,100 68,0 99,-25 99,-62l0 -3c0,-51 -81,-68 -172,-96 -117,-34 -249,-89 -249,-250l0 -3c0,-169 137,-264 305,-264 106,0 221,36 311,96l-90 163c-82,-48 -165,-78 -225,-78 -57,0 -87,25 -87,57l0 3c0,47 79,68 169,100 117,39 252,95 252,247l0 3c0,185 -138,269 -319,269 -117,0 -247,-39 -358,-126z"/>
  <path class="fil2" d="M36568 17419c-14,-106 -76,-177 -176,-177 -98,0 -162,70 -180,177l356 0zm-588 70l0 -3c0,-238 169,-434 412,-434 278,0 406,216 406,452 0,19 -2,40 -3,62l-580 0c23,107 98,163 204,163 79,0 137,-25 202,-85l135 120c-78,97 -190,156 -341,156 -250,0 -435,-176 -435,-431z"/>
  <path class="fil2" d="M37622 17608l0 -42c-40,-19 -93,-31 -151,-31 -101,0 -163,40 -163,115l0 3c0,64 53,101 129,101 110,0 185,-61 185,-146zm-543 54l0 -3c0,-182 138,-266 336,-266 84,0 145,14 204,34l0 -14c0,-98 -61,-152 -179,-152 -90,0 -154,17 -230,45l-59 -180c92,-40 182,-67 323,-67 129,0 222,34 281,93 62,62 90,154 90,266l0 484 -229 0 0 -90c-58,64 -137,106 -252,106 -157,0 -286,-90 -286,-255z"/>
  <path class="fil2" d="M38205 17068l236 0 0 168c48,-115 126,-190 266,-183l0 247 -13 0c-157,0 -253,95 -253,294l0 308 -236 0 0 -833z"/>
  <path class="fil2" d="M38947 17489l0 -3c0,-238 182,-434 437,-434 157,0 255,53 333,140l-145 156c-53,-56 -106,-92 -190,-92 -118,0 -202,104 -202,227l0 3c0,128 83,230 212,230 79,0 134,-34 191,-89l138 140c-81,89 -174,152 -341,152 -250,0 -434,-193 -434,-431z"/>
  <path class="fil2" d="M40030 16767l236 0 0 420c54,-70 124,-134 244,-134 179,0 283,118 283,309l0 540 -236 0 0 -465c0,-112 -53,-170 -143,-170 -90,0 -148,58 -148,170l0 465 -236 0 0 -1135z"/>
  <path class="fil2" d="M41726 17743l142 -169c98,81 200,132 325,132 98,0 157,-39 157,-103l0 -3c0,-61 -37,-92 -219,-138 -219,-56 -361,-117 -361,-333l0 -3c0,-198 159,-328 381,-328 159,0 293,50 404,138l-124 180c-96,-67 -191,-107 -283,-107 -92,0 -140,42 -140,95l0 3c0,72 46,95 235,143 221,58 345,137 345,327l0 3c0,216 -165,337 -399,337 -165,0 -331,-58 -462,-174z"/>
  <path class="fil2" d="M43531 17486l0 -3c0,-138 -92,-230 -202,-230 -111,0 -204,90 -204,230l0 3c0,138 93,230 204,230 110,0 202,-92 202,-230zm-3 295c-57,78 -137,135 -259,135 -194,0 -379,-152 -379,-431l0 -3c0,-278 182,-431 379,-431 126,0 204,58 259,124l0 -109 237 0 0 1082 -237 0 0 -368z"/>
  <path class="fil2" d="M44125 17608l0 -539 237 0 0 465c0,112 53,169 143,169 90,0 148,-58 148,-169l0 -465 237 0 0 833 -237 0 0 -118c-54,70 -124,134 -244,134 -179,0 -283,-118 -283,-309z"/>
  <path class="fil2" d="M45266 17068l236 0 0 833 -236 0 0 -833zm-7 -302l249 0 0 210 -249 0 0 -210z"/>
  <path class="fil2" d="M45880 17068l236 0 0 168c48,-115 126,-190 266,-183l0 247 -12 0c-157,0 -254,95 -254,294l0 308 -236 0 0 -833z"/>
  <path class="fil2" d="M46686 17068l236 0 0 168c48,-115 126,-190 266,-183l0 247 -12 0c-157,0 -254,95 -254,294l0 308 -236 0 0 -833z"/>
  <path class="fil2" d="M48015 17419c-14,-106 -76,-177 -176,-177 -98,0 -162,70 -180,177l356 0zm-587 70l0 -3c0,-238 169,-434 412,-434 278,0 406,216 406,452 0,19 -2,40 -3,62l-580 0c23,107 98,163 204,163 79,0 137,-25 202,-85l135 120c-78,97 -189,156 -341,156 -250,0 -435,-176 -435,-431z"/>
  <polygon class="fil2" points="48587,17902 48823,17902 48823,16767 48587,16767 "/>
  <polygon class="fil2" points="49848,16813 50669,16813 50669,17026 50085,17026 50085,17247 50599,17247 50599,17460 50085,17460 50085,17688 50676,17688 50676,17902 49848,17902 "/>
  <path class="fil2" d="M51020 17068l236 0 0 118c54,-70 125,-134 244,-134 179,0 283,118 283,309l0 540 -236 0 0 -465c0,-112 -53,-170 -143,-170 -90,0 -148,58 -148,170l0 465 -236 0 0 -833z"/>
  <path class="fil2" d="M52748 17444l0 -3c0,-113 -89,-193 -203,-193 -115,0 -202,79 -202,193l0 3c0,115 87,193 202,193 115,0 203,-79 203,-193zm-600 622l81 -177c85,48 171,76 281,76 162,0 238,-78 238,-227l0 -40c-70,84 -146,135 -272,135 -194,0 -370,-142 -370,-389l0 -3c0,-249 179,-389 370,-389 129,0 205,54 269,124l0 -109 236 0 0 645c0,149 -36,258 -106,328 -78,78 -198,112 -359,112 -135,0 -263,-31 -369,-87z"/>
  <path class="fil2" d="M53360 17068l236 0 0 833 -236 0 0 -833zm-7 -302l249 0 0 210 -249 0 0 -210z"/>
  <path class="fil2" d="M53973 17068l237 0 0 118c54,-70 124,-134 244,-134 179,0 283,118 283,309l0 540 -237 0 0 -465c0,-112 -53,-170 -143,-170 -90,0 -148,58 -148,170l0 465 -237 0 0 -833z"/>
  <path class="fil2" d="M55645 17419c-14,-106 -76,-177 -176,-177 -98,0 -162,70 -180,177l356 0zm-587 70l0 -3c0,-238 169,-434 412,-434 278,0 406,216 406,452 0,19 -2,40 -3,62l-580 0c23,107 98,163 204,163 79,0 137,-25 202,-85l135 120c-78,97 -189,156 -340,156 -250,0 -435,-176 -435,-431z"/>
  <path class="fil2" d="M56753 17419c-14,-106 -76,-177 -176,-177 -98,0 -161,70 -180,177l356 0zm-588 70l0 -3c0,-238 169,-434 412,-434 278,0 406,216 406,452 0,19 -2,40 -3,62l-580 0c24,107 98,163 204,163 79,0 137,-25 202,-85l135 120c-78,97 -190,156 -341,156 -250,0 -435,-176 -435,-431z"/>
  <path class="fil2" d="M57315 17068l236 0 0 168c48,-115 126,-190 266,-183l0 247 -13 0c-157,0 -253,95 -253,294l0 308 -236 0 0 -833z"/>
  <path class="fil2" d="M58055 17791l101 -156c90,65 185,100 263,100 69,0 100,-25 100,-62l0 -3c0,-51 -81,-68 -173,-96 -117,-34 -249,-89 -249,-250l0 -3c0,-169 137,-264 305,-264 106,0 221,36 311,96l-90 163c-83,-48 -165,-78 -225,-78 -58,0 -87,25 -87,57l0 3c0,47 79,68 169,100 116,39 252,95 252,247l0 3c0,185 -138,269 -319,269 -117,0 -247,-39 -358,-126z"/>
 </g>
</svg>
